<mxfile host="app.diagrams.net" modified="2022-06-28T04:21:39.473Z" agent="5.0 (Macintosh; Intel Mac OS X 10_15_7) AppleWebKit/537.36 (KHTML, like Gecko) Chrome/102.0.0.0 Safari/537.36" etag="rpXQFKKW2Ue3rakwiE9F" version="19.0.0" type="github">
  <diagram id="tRerCtz_TizGKk7SCCyK" name="Page-1">
    <mxGraphModel dx="786" dy="448" grid="1" gridSize="10" guides="1" tooltips="1" connect="1" arrows="1" fold="1" page="1" pageScale="1" pageWidth="850" pageHeight="1100" math="0" shadow="0">
      <root>
        <mxCell id="0" />
        <mxCell id="1" parent="0" />
        <mxCell id="UhZU4S5h7tRamJm1dl9O-3" style="edgeStyle=orthogonalEdgeStyle;rounded=0;orthogonalLoop=1;jettySize=auto;html=1;exitX=1;exitY=0;exitDx=0;exitDy=0;" edge="1" parent="1" source="UhZU4S5h7tRamJm1dl9O-1" target="UhZU4S5h7tRamJm1dl9O-2">
          <mxGeometry relative="1" as="geometry" />
        </mxCell>
        <mxCell id="UhZU4S5h7tRamJm1dl9O-1" value="Physical Item (Fabric)" style="aspect=fixed;perimeter=ellipsePerimeter;html=1;align=center;shadow=0;dashed=0;fontColor=#4277BB;labelBackgroundColor=#ffffff;fontSize=12;spacingTop=3;image;image=img/lib/ibm/blockchain/hyperledger_fabric.svg;" vertex="1" parent="1">
          <mxGeometry x="150" y="540" width="60" height="60" as="geometry" />
        </mxCell>
        <mxCell id="UhZU4S5h7tRamJm1dl9O-2" value="Color Code/ Item Code" style="text;html=1;strokeColor=none;fillColor=none;align=center;verticalAlign=middle;whiteSpace=wrap;rounded=0;" vertex="1" parent="1">
          <mxGeometry x="290" y="470" width="120" height="30" as="geometry" />
        </mxCell>
        <mxCell id="UhZU4S5h7tRamJm1dl9O-4" value="" style="rounded=0;whiteSpace=wrap;html=1;" vertex="1" parent="1">
          <mxGeometry x="60" y="670" width="260" height="290" as="geometry" />
        </mxCell>
        <mxCell id="UhZU4S5h7tRamJm1dl9O-5" value="Physical Store" style="text;html=1;strokeColor=none;fillColor=none;align=center;verticalAlign=middle;whiteSpace=wrap;rounded=0;" vertex="1" parent="1">
          <mxGeometry x="130" y="640" width="110" height="30" as="geometry" />
        </mxCell>
        <mxCell id="UhZU4S5h7tRamJm1dl9O-6" value="" style="rounded=0;whiteSpace=wrap;html=1;" vertex="1" parent="1">
          <mxGeometry x="440" y="670" width="260" height="290" as="geometry" />
        </mxCell>
        <mxCell id="UhZU4S5h7tRamJm1dl9O-7" value="System" style="text;html=1;strokeColor=none;fillColor=none;align=center;verticalAlign=middle;whiteSpace=wrap;rounded=0;" vertex="1" parent="1">
          <mxGeometry x="510" y="640" width="110" height="30" as="geometry" />
        </mxCell>
        <mxCell id="UhZU4S5h7tRamJm1dl9O-8" value="&lt;h1&gt;PROBLEM&lt;/h1&gt;&lt;p&gt;System might have &lt;b&gt;multiple item codes&lt;/b&gt; for same physical item&lt;/p&gt;&lt;p&gt;RES =&amp;gt; &lt;font color=&quot;#ff3333&quot;&gt;change item code&lt;/font&gt;&lt;/p&gt;" style="text;html=1;strokeColor=none;fillColor=none;spacing=5;spacingTop=-20;whiteSpace=wrap;overflow=hidden;rounded=0;" vertex="1" parent="1">
          <mxGeometry x="510" y="410" width="190" height="120" as="geometry" />
        </mxCell>
        <mxCell id="UhZU4S5h7tRamJm1dl9O-12" style="edgeStyle=orthogonalEdgeStyle;rounded=0;orthogonalLoop=1;jettySize=auto;html=1;" edge="1" parent="1" source="UhZU4S5h7tRamJm1dl9O-9" target="UhZU4S5h7tRamJm1dl9O-10">
          <mxGeometry relative="1" as="geometry" />
        </mxCell>
        <mxCell id="UhZU4S5h7tRamJm1dl9O-13" style="edgeStyle=orthogonalEdgeStyle;rounded=0;orthogonalLoop=1;jettySize=auto;html=1;exitX=1;exitY=0.75;exitDx=0;exitDy=0;" edge="1" parent="1" source="UhZU4S5h7tRamJm1dl9O-9" target="UhZU4S5h7tRamJm1dl9O-11">
          <mxGeometry relative="1" as="geometry" />
        </mxCell>
        <mxCell id="UhZU4S5h7tRamJm1dl9O-9" value="ITEM001 - 100 pieces" style="aspect=fixed;perimeter=ellipsePerimeter;html=1;align=center;shadow=0;dashed=0;fontColor=#4277BB;labelBackgroundColor=#ffffff;fontSize=12;spacingTop=3;image;image=img/lib/ibm/blockchain/hyperledger_fabric.svg;" vertex="1" parent="1">
          <mxGeometry x="160" y="750" width="60" height="60" as="geometry" />
        </mxCell>
        <mxCell id="UhZU4S5h7tRamJm1dl9O-10" value="ITEM001 - 100" style="text;html=1;strokeColor=none;fillColor=none;align=center;verticalAlign=middle;whiteSpace=wrap;rounded=0;" vertex="1" parent="1">
          <mxGeometry x="440" y="740" width="110" height="30" as="geometry" />
        </mxCell>
        <mxCell id="UhZU4S5h7tRamJm1dl9O-11" value="s" style="text;html=1;strokeColor=none;fillColor=none;align=center;verticalAlign=middle;whiteSpace=wrap;rounded=0;" vertex="1" parent="1">
          <mxGeometry x="430" y="800" width="110" height="30" as="geometry" />
        </mxCell>
      </root>
    </mxGraphModel>
  </diagram>
</mxfile>
